<svg width="270" height="270" viewBox="0 0 270 270" fill="none" xmlns="http://www.w3.org/2000/svg">
<g clip-path="url(#clip0_1_16)">
<rect x="33" y="30" width="103" height="210" fill="#0C0A09"/>
<circle cx="138" cy="135" r="105" fill="#0C0A09"/>
<path d="M146.67 251.62C132.27 251.62 118.95 249.28 106.71 244.6C94.65 239.74 84.12 232.99 75.12 224.35C66.3 215.71 59.37 205.54 54.33 193.84C49.47 182.14 47.04 169.36 47.04 155.5C47.04 141.64 49.47 128.86 54.33 117.16C59.37 105.46 66.39 95.29 75.39 86.65C84.39 78.01 94.92 71.35 106.98 66.67C119.22 61.81 132.54 59.38 146.94 59.38C161.34 59.38 174.48 61.63 186.36 66.13C198.42 70.63 208.68 77.47 217.14 86.65L204.72 99.34C196.8 91.42 188.07 85.75 178.53 82.33C168.99 78.91 158.73 77.2 147.75 77.2C136.05 77.2 125.25 79.18 115.35 83.14C105.63 86.92 97.08 92.41 89.7 99.61C82.5 106.63 76.83 114.91 72.69 124.45C68.73 133.81 66.75 144.16 66.75 155.5C66.75 166.66 68.73 177.01 72.69 186.55C76.83 196.09 82.5 204.46 89.7 211.66C97.08 218.68 105.63 224.17 115.35 228.13C125.25 231.91 135.96 233.8 147.48 233.8C158.28 233.8 168.45 232.18 177.99 228.94C187.71 225.7 196.62 220.21 204.72 212.47L216.06 227.59C207.06 235.51 196.53 241.54 184.47 245.68C172.41 249.64 159.81 251.62 146.67 251.62ZM196.89 225.16V155.5H216.06V227.59L196.89 225.16Z" fill="white"/>
</g>
<defs>
<clipPath id="clip0_1_16">
<rect width="270" height="270" fill="white"/>
</clipPath>
</defs>
</svg>
